<?xml version="1.0" encoding="UTF-8"?>
<svg xmlns="http://www.w3.org/2000/svg" width="1000" height="640" viewBox="0 0 1000 640" font-family="Arial, sans-serif">
<line x1="90" y1="78" x2="90" y2="600" stroke="#888" stroke-width="1.6" stroke-dasharray="5,4"/>
          <rect x="35" y="32" width="110" height="40" rx="8" fill="#eef2ff" stroke="#4338ca" stroke-width="1.6"/>
          <text x="90" y="58" text-anchor="middle" font-size="12" font-weight="bold" fill="#312e81">Client</text><line x1="240" y1="78" x2="240" y2="600" stroke="#888" stroke-width="1.6" stroke-dasharray="5,4"/>
          <rect x="185" y="32" width="110" height="40" rx="8" fill="#eef2ff" stroke="#4338ca" stroke-width="1.6"/>
          <text x="240" y="58" text-anchor="middle" font-size="12" font-weight="bold" fill="#312e81">Route</text><line x1="400" y1="78" x2="400" y2="600" stroke="#888" stroke-width="1.6" stroke-dasharray="5,4"/>
          <rect x="345" y="32" width="110" height="40" rx="8" fill="#eef2ff" stroke="#4338ca" stroke-width="1.6"/>
          <text x="400" y="58" text-anchor="middle" font-size="12" font-weight="bold" fill="#312e81">Controller</text><line x1="570" y1="78" x2="570" y2="600" stroke="#888" stroke-width="1.6" stroke-dasharray="5,4"/>
          <rect x="515" y="32" width="110" height="40" rx="8" fill="#eef2ff" stroke="#4338ca" stroke-width="1.6"/>
          <text x="570" y="58" text-anchor="middle" font-size="12" font-weight="bold" fill="#312e81">Service</text><line x1="760" y1="78" x2="760" y2="600" stroke="#888" stroke-width="1.6" stroke-dasharray="5,4"/>
          <rect x="705" y="32" width="110" height="40" rx="8" fill="#eef2ff" stroke="#4338ca" stroke-width="1.6"/>
          <text x="760" y="58" text-anchor="middle" font-size="12" font-weight="bold" fill="#312e81">Database</text><line x1="920" y1="78" x2="920" y2="600" stroke="#888" stroke-width="1.6" stroke-dasharray="5,4"/>
          <rect x="865" y="32" width="110" height="40" rx="8" fill="#eef2ff" stroke="#4338ca" stroke-width="1.6"/>
          <text x="920" y="58" text-anchor="middle" font-size="12" font-weight="bold" fill="#312e81">Email</text><line x1="90" y1="100" x2="240" y2="100" stroke="#111" stroke-width="1.5"/><polygon points="240,95 250,100 240,105" fill="#111"/><text x="165" y="85" text-anchor="middle" font-size="11" fill="#333">POST /customer/order/</text><line x1="240" y1="130" x2="400" y2="130" stroke="#111" stroke-width="1.5"/><polygon points="400,125 410,130 400,135" fill="#111"/><text x="320" y="115" text-anchor="middle" font-size="11" fill="#333">validate (Joi)</text><line x1="400" y1="160" x2="570" y2="160" stroke="#111" stroke-width="1.5"/><polygon points="570,155 580,160 570,165" fill="#111"/><text x="485" y="145" text-anchor="middle" font-size="11" fill="#333">createOrder()</text><rect x="754" y="190" width="12" height="150" fill="#dbeafe"/><text x="760" y="206" text-anchor="middle" font-size="10.5" fill="#1e40af">[BEGIN TRANSACTION]</text><line x1="570" y1="224" x2="760" y2="224" stroke="#111" stroke-width="1.5"/><polygon points="760,219 770,224 760,229" fill="#111"/><text x="665" y="209" text-anchor="middle" font-size="11" fill="#333">Kiểm tra tồn kho</text><line x1="570" y1="252" x2="760" y2="252" stroke="#111" stroke-width="1.5"/><polygon points="760,247 770,252 760,257" fill="#111"/><text x="665" y="237" text-anchor="middle" font-size="11" fill="#333">Validate coupon, tính VAT</text><line x1="570" y1="280" x2="760" y2="280" stroke="#111" stroke-width="1.5"/><polygon points="760,275 770,280 760,285" fill="#111"/><text x="665" y="265" text-anchor="middle" font-size="11" fill="#333">Tạo order + items + invoice</text><line x1="570" y1="308" x2="760" y2="308" stroke="#111" stroke-width="1.5"/><polygon points="760,303 770,308 760,313" fill="#111"/><text x="665" y="293" text-anchor="middle" font-size="11" fill="#333">Trừ tồn kho từng variant</text><line x1="570" y1="336" x2="760" y2="336" stroke="#111" stroke-width="1.5"/><polygon points="760,331 770,336 760,341" fill="#111"/><text x="665" y="321" text-anchor="middle" font-size="11" fill="#333">Tạo shipment</text><line x1="760" y1="362" x2="570" y2="362" stroke="#0a7a3d" stroke-width="1.5" stroke-dasharray="6,3"/><polygon points="570,357 560,362 570,367" fill="#0a7a3d"/><text x="665" y="355" text-anchor="middle" font-size="11" fill="#0a7a3d">COMMIT → order</text><line x1="570" y1="392" x2="760" y2="392" stroke="#111" stroke-width="1.5"/><polygon points="760,387 770,392 760,397" fill="#111"/><text x="665" y="377" text-anchor="middle" font-size="11" fill="#333">Gửi email (best-effort)</text><line x1="760" y1="418" x2="570" y2="418" stroke="#0a7a3d" stroke-width="1.5" stroke-dasharray="6,3"/><polygon points="570,413 560,418 570,423" fill="#0a7a3d"/><text x="665" y="411" text-anchor="middle" font-size="11" fill="#0a7a3d">email ok</text><line x1="570" y1="444" x2="400" y2="444" stroke="#0a7a3d" stroke-width="1.5" stroke-dasharray="6,3"/><polygon points="400,439 390,444 400,449" fill="#0a7a3d"/><text x="485" y="437" text-anchor="middle" font-size="11" fill="#0a7a3d">order</text><line x1="400" y1="470" x2="90" y2="470" stroke="#0a7a3d" stroke-width="1.5" stroke-dasharray="6,3"/><polygon points="90,465 80,470 90,475" fill="#0a7a3d"/><text x="245" y="463" text-anchor="middle" font-size="11" fill="#0a7a3d">201 Created { order, invoice }</text>
</svg>